<svg width="291" height="291" viewBox="0 0 291 291" fill="none" xmlns="http://www.w3.org/2000/svg">
<line x1="57" y1="75.0179" x2="57" y2="47" stroke="white" stroke-width="6"/>
<line x1="82" y1="50" x2="54" y2="50" stroke="white" stroke-width="6"/>
<line x1="82.0181" y1="239" x2="54.0002" y2="239" stroke="white" stroke-width="6"/>
<line x1="57" y1="214" x2="57" y2="242" stroke="white" stroke-width="6"/>
<line x1="238" y1="214" x2="238" y2="242.018" stroke="white" stroke-width="6"/>
<line x1="213" y1="239.018" x2="241" y2="239.018" stroke="white" stroke-width="6"/>
<line x1="213" y1="55" x2="241.018" y2="55" stroke="white" stroke-width="6"/>
<line x1="238.018" y1="80" x2="238.018" y2="52" stroke="white" stroke-width="6"/>
<line x1="119" y1="61" x2="119" y2="95" stroke="white" stroke-width="6"/>
<line x1="151" y1="74" x2="151" y2="85" stroke="white" stroke-width="6"/>
<line x1="161" y1="70" x2="161" y2="85" stroke="white" stroke-width="6"/>
<line x1="156" y1="102" x2="156" y2="108" stroke="white" stroke-width="6"/>
<line x1="166" y1="93" x2="166" y2="122" stroke="white" stroke-width="6"/>
<line x1="117" y1="92" x2="169" y2="92" stroke="white" stroke-width="6"/>
<line x1="92" y1="61" x2="92" y2="121" stroke="white" stroke-width="6"/>
<line x1="89.0375" y1="118" x2="169.038" y2="119" stroke="white" stroke-width="6"/>
<line x1="91" y1="64" x2="122" y2="64" stroke="white" stroke-width="6"/>
<line x1="69" y1="199" x2="69" y2="232" stroke="white" stroke-width="6"/>
<line x1="170" y1="157" x2="170" y2="199" stroke="white" stroke-width="6"/>
<line x1="173" y1="160" x2="228" y2="160" stroke="white" stroke-width="6"/>
<line x1="132" y1="212" x2="132" y2="218" stroke="white" stroke-width="6"/>
<line x1="183" y1="168" x2="183" y2="174" stroke="white" stroke-width="6"/>
<line x1="211" y1="168" x2="211" y2="174" stroke="white" stroke-width="6"/>
<line x1="93" y1="179" x2="122" y2="179" stroke="white" stroke-width="6"/>
<line x1="119" y1="181" x2="119" y2="205" stroke="white" stroke-width="6"/>
<line x1="197" y1="162.954" x2="198" y2="227.954" stroke="white" stroke-width="6"/>
<line x1="142" y1="204" x2="142" y2="228" stroke="white" stroke-width="6"/>
<line x1="122" y1="202" x2="173" y2="202" stroke="white" stroke-width="6"/>
<line x1="225" y1="163" x2="225" y2="232" stroke="white" stroke-width="6"/>
<line x1="222" y1="229" x2="71" y2="229" stroke="white" stroke-width="6"/>
<line x1="91" y1="176" x2="91" y2="201" stroke="white" stroke-width="6"/>
<line x1="71" y1="202" x2="94" y2="202" stroke="white" stroke-width="6"/>
<circle cx="145.5" cy="145.5" r="143" stroke="white" stroke-width="5"/>
</svg>
